# xmcd CD database file
#
# Track frame offsets:
#	150
#	22547
#	43667
#	63856
#	87268
#	108543
#	127010
#	149787
#	166891
#	183796
#	202945
#	227917
#
# Disc length: 3126 seconds
#
# Revision: 10
# Processed by: cddbd v1.5.1PL2 Copyright (c) Steve Scherf et al.
# Submitted via: CDex 1.51
#
DISCID=9c0c340c
DTITLE=Various Artist - CHANGE THE GAME
DYEAR=2002
DGENRE=Hip Hop
TTITLE0=DJ OASIS feat. K DUB SHINE, ZEEBRA, 童子−T, UZI, JA飛龍,O.J and S.T, KM-MARKIT/CHANGE THE GAME
TTITLE1=DJ YUTAKA feat. HAB I SCREAM and E.G.G. MAN from SOUL SCREAM/セレモニー
TTITLE2=DJ MITSU The Beats feat. KOHEI JAPAN/もしも息子が出来たなら…
TTITLE3=DJ OASIS feat. WORD SWINGAZ/only one's song
TTITLE4=INOVADER feat. 走馬党/クーデター
TTITLE5=DJ YAS/Change
TTITLE6=D.O.I. feat. K DUB SHINE/テレビジョン
TTITLE7=DJ CELORY feat. キエるマキュウ/アクション
TTITLE8=ROCK-Tee feat. T.A.K the RHHHYME/TOMORROW NEVER DIES
TTITLE9=Hi-Timez and JUJU/Hi-Timez
TTITLE10=BEN THE ACE feat. 童子−T and YAMAKOU/未来の宝
TTITLE11=童子-T/OUTRO 感謝
EXTD=YEAR: 2002
EXTT0=
EXTT1=
EXTT2=
EXTT3=
EXTT4=
EXTT5=
EXTT6=
EXTT7=
EXTT8=
EXTT9=
EXTT10=
EXTT11=
PLAYORDER=
